<?xml version="1.0" encoding="UTF-8"?>
<svg xmlns="http://www.w3.org/2000/svg" xmlns:xlink="http://www.w3.org/1999/xlink" viewBox="0 0 40 40" version="1.1" width="120px" height="120px">
<g id="surface1">
<path style=" fill:#FFFFFF;" d="M 1.5 4.5 L 38.5 4.5 L 38.5 35.5 L 1.5 35.5 Z "/>
<path style=" fill:#4788C7;" d="M 38 5 L 38 35 L 2 35 L 2 5 L 38 5 M 39 4 L 1 4 L 1 36 L 39 36 Z "/>
<path style=" fill:#B6DCFE;" d="M 6 9 L 34 9 L 34 26.875 L 6 26.875 Z "/>
<path style=" fill:#DFF0FE;" d="M 6 19 L 34 19 L 34 27 L 6 27 Z "/>
<path style=" fill:#DFF0FE;" d="M 6 27 L 34 27 L 34 31 L 6 31 Z "/>
<path style=" fill:#DFF0FE;" d="M 18.25 18.144531 C 18.25 16.40625 16.683594 15 14.75 15 C 12.816406 15 11.25 16.40625 11.25 18.144531 C 11.25 19.878906 12.816406 21.285156 14.75 21.285156 C 16.683594 21.285156 18.25 19.878906 18.25 18.144531 Z "/>
<path style=" fill:#DFF0FE;" d="M 13.875 18.144531 C 13.875 16.839844 12.699219 15.785156 11.25 15.785156 C 9.800781 15.785156 8.625 16.839844 8.625 18.144531 C 8.625 19.445313 9.800781 20.5 11.25 20.5 C 12.699219 20.5 13.875 19.445313 13.875 18.144531 Z "/>
<path style=" fill:#DFF0FE;" d="M 23.5 19.714844 C 23.5 17.976563 21.933594 16.570313 20 16.570313 C 18.066406 16.570313 16.5 17.976563 16.5 19.714844 C 16.5 21.449219 18.066406 22.855469 20 22.855469 C 21.933594 22.855469 23.5 21.449219 23.5 19.714844 Z "/>
<path style=" fill:#DFF0FE;" d="M 28.75 18.144531 C 28.75 16.40625 27.183594 15 25.25 15 C 23.316406 15 21.75 16.40625 21.75 18.144531 C 21.75 19.878906 23.316406 21.285156 25.25 21.285156 C 27.183594 21.285156 28.75 19.878906 28.75 18.144531 Z "/>
<path style=" fill:#DFF0FE;" d="M 34 18.144531 C 34 17.273438 33.214844 16.570313 32.25 16.570313 C 31.285156 16.570313 30.5 17.273438 30.5 18.144531 C 30.5 19.011719 31.285156 19.714844 32.25 19.714844 C 33.214844 19.714844 34 19.011719 34 18.144531 Z "/>
<path style=" fill:#DFF0FE;" d="M 9.5 18.144531 C 9.5 17.273438 8.714844 16.570313 7.75 16.570313 C 6.785156 16.570313 6 17.273438 6 18.144531 C 6 19.011719 6.785156 19.714844 7.75 19.714844 C 8.714844 19.714844 9.5 19.011719 9.5 18.144531 Z "/>
<path style=" fill:#DFF0FE;" d="M 31.375 18.144531 C 31.375 16.839844 30.199219 15.785156 28.75 15.785156 C 27.300781 15.785156 26.125 16.839844 26.125 18.144531 C 26.125 19.445313 27.300781 20.5 28.75 20.5 C 30.199219 20.5 31.375 19.445313 31.375 18.144531 Z "/>
<path style=" fill:#98CCFD;" d="M 6 27 L 34 27 L 34 25.382813 L 25.25 20 Z "/>
<path style=" fill:#B6DCFE;" d="M 27 27 L 6 27 L 6 23 L 14.75 19 Z "/>
</g>
</svg>
